# xmcd
#
# Track frame offsets:
#	150
#	14874
#	28859
#	45847
#	61671
#	77633
#	95745
#	114256
#	132045
#	147688
#	160209
#	176126
#	195297
#	211082
#	225670
#	243981
#	260661
#	278005
#
# Disc length: 3881 seconds
#
# Revision: 1
# Processed by: cddbd v1.5.1PL0 Copyright (c) Steve Scherf et al.
# Submitted via: audiograbber 1.83.01
#
DISCID=f40f2712
DTITLE=Various Artist - Hott Country 101
DYEAR=2004
DGENRE=Country
TTITLE0=Gretchen Wilson - Here For the Party
TTITLE1=Alan Jackson - Too Much Of A Good Thing
TTITLE2=Keith Urban - Days Go By
TTITLE3=Gary Allan - Nothing On ButThe Radio
TTITLE4=Deric Ruttan - I Saved Everything
TTITLE5=Jimmy Rankin - Butterfly
TTITLE6=Duane Steele - Better Man
TTITLE7=George Fox - High-Toned Years
TTITLE8=Lane Turner - Always Wanting More ( Breathless )
TTITLE9=Loretta Lynn - Miss Being Mrs.
TTITLE10=Gil Grand - Never Comin' Down
TTITLE11=Sean Hogan - Catalina Sunrrise
TTITLE12=Scotty Emerick - The Watch
TTITLE13=Clay Walker - Jesus Was A Country Boy
TTITLE14=Kellie Coffey - Dance With My Father
TTITLE15=Ryan Malcolm - You Made This Fool Become A Man
TTITLE16=Danni - My Kind Of Guy
TTITLE17=J.R. Vautour - It Makes Me Live U
EXTD=
EXTT0=
EXTT1=
EXTT2=
EXTT3=
EXTT4=
EXTT5=
EXTT6=
EXTT7=
EXTT8=
EXTT9=
EXTT10=
EXTT11=
EXTT12=
EXTT13=
EXTT14=
EXTT15=
EXTT16=
EXTT17=
PLAYORDER=
